<svg width="548" height="447" viewBox="0 0 548 447" fill="none" xmlns="http://www.w3.org/2000/svg">
<g clip-path="url(#clip0)">
<path d="M160.626 421.235C162.717 423.224 165.285 424.641 168.082 425.348C170.879 426.055 173.81 426.029 176.594 425.272C183.73 423.244 188.572 416.799 192.87 410.746L205.587 392.847L194.869 394.815C187.162 396.23 179.263 397.715 172.551 401.765C165.839 405.814 160.462 413.042 160.888 420.877" fill="#E6E6E6"/>
<path d="M150.664 445.346C152.543 438.929 154.434 432.424 157.752 426.576C160.7 421.382 164.727 416.825 170.04 413.992C172.858 412.492 175.916 411.496 179.076 411.049C179.9 410.933 180.034 412.217 179.214 412.333C173.743 413.116 168.661 415.618 164.702 419.479C160.313 423.778 157.434 429.321 155.306 435.026C154.017 438.476 152.977 442.009 151.943 445.543C151.912 445.71 151.819 445.859 151.682 445.96C151.545 446.06 151.375 446.104 151.206 446.083C151.038 446.056 150.886 445.964 150.785 445.826C150.684 445.688 150.642 445.515 150.667 445.346L150.664 445.346Z" fill="#F2F2F2"/>
<path d="M357.627 186.9C358.849 186.605 360.12 186.582 361.351 186.832C362.583 187.083 363.744 187.6 364.754 188.349C365.764 189.097 366.598 190.058 367.197 191.164C367.796 192.27 368.145 193.495 368.22 194.75L397.624 203.027L385.627 213.431L359.543 203.977C357.428 203.963 355.391 203.174 353.818 201.757C352.245 200.34 351.246 198.395 351.01 196.29C350.774 194.186 351.317 192.067 352.536 190.336C353.756 188.605 355.567 187.383 357.627 186.9L357.627 186.9Z" fill="#FFB7B7"/>
<path d="M433.185 437.585L424.615 437.584L420.538 404.484L433.186 404.484L433.185 437.585Z" fill="#FFB7B7"/>
<path d="M435.371 445.903L407.736 445.902V445.552C407.736 442.696 408.87 439.957 410.887 437.937C412.904 435.918 415.64 434.783 418.492 434.783H418.493L435.372 434.784L435.371 445.903Z" fill="#2E2E2E"/>
<path d="M483.407 437.585L474.837 437.584L470.76 404.484L483.408 404.484L483.407 437.585Z" fill="#FFB7B7"/>
<path d="M485.593 445.903L457.957 445.902V445.552C457.957 442.696 459.091 439.957 461.108 437.937C463.125 435.918 465.861 434.783 468.714 434.783H468.715L485.594 434.784L485.593 445.903Z" fill="#2E2E2E"/>
<path d="M426.183 247.604L413.557 335.164L416.703 427.417L435.662 428.929L441.59 346.195L456.681 300.063L465.554 365.824L465.918 427.417L485.495 428.929L492.323 299.437L487.301 243.122L426.183 247.604Z" fill="#2E2E2E"/>
<path d="M462.698 130.372C473.729 130.372 482.671 121.418 482.671 110.374C482.671 99.3295 473.729 90.3762 462.698 90.3762C451.668 90.3762 442.726 99.3295 442.726 110.374C442.726 121.418 451.668 130.372 462.698 130.372Z" fill="#FFB7B7"/>
<path d="M450.388 141.249L428.339 252.472C428.339 252.472 465.461 263.14 481.724 253.291C497.986 243.443 490.699 213.04 490.699 213.04L487.721 161.307L482.217 148.225L477.547 137.426L450.388 141.249Z" fill="#CBCBCB"/>
<path d="M443.934 220.198L451.551 139.09L445.46 143.543L424.161 150.469L422.704 207.571L407.805 282.662C407.805 282.662 418.455 303.468 431.652 269.047L443.934 220.198Z" fill="#2E2E2E"/>
<path d="M434.411 159.009L424.162 150.468L401.125 200.575L375.418 194.937L374.204 210.138L411.449 224.897L436.831 189.517L434.411 159.009Z" fill="#2E2E2E"/>
<path d="M474.286 202.444L477.157 136.434L487.721 144.625L506.588 149.891L503.822 202.444L507.803 283.991L488.023 290.263L482.47 238.807L474.286 202.444Z" fill="#2E2E2E"/>
<path d="M475.555 255.582C475.777 254.343 476.267 253.169 476.99 252.14C477.714 251.112 478.654 250.255 479.745 249.63C480.835 249.004 482.049 248.626 483.301 248.521C484.554 248.417 485.814 248.588 486.992 249.024L506.378 225.391L511.072 240.572L491.944 260.687C491.082 262.621 489.541 264.172 487.613 265.044C485.685 265.917 483.505 266.052 481.485 265.422C479.465 264.793 477.745 263.444 476.653 261.63C475.56 259.817 475.169 257.665 475.555 255.582V255.582Z" fill="#FFB7B7"/>
<path d="M493.957 157.218L506.588 149.891L538.372 212.736L507.384 255.821L489.71 241.671L511.171 213.648L491.611 183.549L493.957 157.218Z" fill="#2E2E2E"/>
<path d="M481.483 94.3868L482.451 92.4355L477.579 90.0118C477.579 90.0118 472.204 81.2557 462.479 83.7163C452.753 86.177 448.377 87.6497 448.377 87.6497L443.518 90.098L445.957 92.5279L441.581 94.0006L444.504 95.4548L441.103 97.4122L442.934 107.447C442.934 107.447 445.975 99.836 451.822 102.744C457.668 105.653 468.362 101.241 468.362 101.241L477.653 119.244C477.653 119.244 479.57 112.933 482.987 114.616C482.987 114.616 491.717 100.695 481.483 94.3868Z" fill="#2E2E2E"/>
<path d="M360.164 123.726H360.036L286.792 155.042L186.577 197.888C186.186 198.053 185.766 198.139 185.341 198.141C184.916 198.143 184.495 198.062 184.102 197.901L80.7101 154.952L5.66571 123.777L5.55108 123.726H5.42333C4.23924 123.727 3.10404 124.199 2.26677 125.037C1.4295 125.876 0.958541 127.012 0.957222 128.198V322.403C0.958543 323.589 1.4295 324.725 2.26677 325.564C3.10404 326.402 4.23924 326.873 5.42333 326.875H360.164C361.348 326.873 362.483 326.402 363.321 325.564C364.158 324.725 364.629 323.589 364.63 322.403V128.198C364.629 127.012 364.158 125.876 363.321 125.037C362.483 124.199 361.348 123.727 360.164 123.726Z" fill="white"/>
<path d="M360.483 125.004C360.352 125.004 360.225 124.964 360.118 124.889L183.667 1.84754C183.13 1.47483 182.492 1.27565 181.839 1.27677C181.186 1.27788 180.548 1.47923 180.012 1.85377L4.83257 124.888C4.694 124.985 4.52262 125.023 4.35608 124.994C4.18954 124.964 4.04146 124.87 3.94436 124.731C3.84725 124.593 3.80907 124.421 3.83819 124.254C3.86731 124.088 3.96136 123.939 4.09967 123.842L179.28 0.807597C180.03 0.283338 180.922 0.00151121 181.837 6.0605e-06C182.752 -0.00149909 183.645 0.277387 184.397 0.799175L360.848 123.84C360.959 123.918 361.043 124.03 361.087 124.158C361.131 124.287 361.132 124.427 361.092 124.556C361.051 124.686 360.97 124.799 360.86 124.88C360.751 124.96 360.618 125.004 360.482 125.004L360.483 125.004Z" fill="#3F3D56"/>
<path d="M14.8427 129.365L182.012 5.31458L350.45 138.192L190.625 233.058L103.854 213.255L14.8427 129.365Z" fill="#E6E6E6"/>
<path d="M111.179 291.654H28.5931C28.086 291.655 27.5836 291.557 27.1146 291.363C26.6456 291.17 26.2192 290.886 25.8598 290.528C25.5004 290.17 25.2151 289.744 25.0202 289.275C24.8253 288.807 24.7246 288.304 24.7238 287.796C24.7231 287.289 24.8223 286.786 25.0159 286.316C25.2094 285.847 25.4934 285.42 25.8518 285.061C26.2101 284.702 26.6356 284.417 27.104 284.222C27.5725 284.028 28.0746 283.927 28.5818 283.927H111.179C111.686 283.926 112.188 284.025 112.657 284.218C113.126 284.411 113.553 284.695 113.912 285.053C114.272 285.411 114.557 285.837 114.752 286.306C114.947 286.774 115.047 287.277 115.048 287.785C115.049 288.293 114.95 288.796 114.756 289.265C114.563 289.734 114.279 290.161 113.92 290.52C113.562 290.879 113.136 291.165 112.668 291.359C112.2 291.554 111.697 291.654 111.19 291.654H111.179Z" fill="#24943E"/>
<path d="M58.2231 275.044H28.5931C28.0859 275.046 27.5835 274.947 27.1145 274.754C26.6455 274.561 26.2191 274.277 25.8597 273.919C25.5004 273.56 25.2151 273.135 25.0201 272.666C24.8252 272.197 24.7245 271.694 24.7237 271.187C24.723 270.679 24.8222 270.176 25.0158 269.707C25.2093 269.237 25.4934 268.811 25.8517 268.451C26.21 268.092 26.6356 267.807 27.104 267.613C27.5724 267.418 28.0746 267.318 28.5817 267.318H58.2231C59.2455 267.318 60.2261 267.724 60.9496 268.447C61.6732 269.17 62.0804 270.152 62.0819 271.175C62.0835 272.199 61.6791 273.181 60.9577 273.907C60.2364 274.632 59.2569 275.041 58.2345 275.044H58.2231Z" fill="#24943E"/>
<path d="M184.363 198.46C183.735 198.46 183.114 198.338 182.533 198.101L79.434 155.268V21.193C79.4354 20.0075 79.9063 18.8708 80.7436 18.0325C81.5809 17.1942 82.716 16.7226 83.9001 16.7212H281.687C282.871 16.7226 284.006 17.1942 284.844 18.0325C285.681 18.8708 286.152 20.0075 286.153 21.193V155.361L285.96 155.444L186.249 198.08C185.652 198.331 185.011 198.46 184.363 198.46Z" fill="#24943E"/>
<path d="M359.207 123.726H359.079L285.834 155.042L185.62 197.888C185.229 198.053 184.808 198.139 184.384 198.141C183.959 198.143 183.538 198.062 183.144 197.901L79.7529 154.952L4.70858 123.777L4.59395 123.726H4.46613C3.28204 123.727 2.14684 124.199 1.30957 125.037C0.472293 125.876 0.00133594 127.012 1.90735e-05 128.198V322.403C0.00133594 323.589 0.472293 324.725 1.30957 325.564C2.14684 326.402 3.28204 326.873 4.46613 326.875H359.207C360.391 326.873 361.526 326.402 362.364 325.564C363.201 324.725 363.672 323.589 363.673 322.403V128.198C363.672 127.012 363.201 125.876 362.364 125.037C361.526 124.199 360.391 123.727 359.207 123.726ZM362.397 322.403C362.397 323.25 362.061 324.062 361.462 324.661C360.864 325.26 360.053 325.597 359.207 325.597H4.46613C3.62016 325.597 2.80893 325.26 2.21074 324.661C1.61254 324.062 1.27633 323.25 1.27599 322.403V128.198C1.27715 127.372 1.59714 126.578 2.16908 125.983C2.74102 125.388 3.52063 125.037 4.34493 125.004L79.7529 156.332L182.653 199.083C183.767 199.536 185.015 199.53 186.124 199.064L285.834 156.428L359.335 125.004C360.158 125.039 360.935 125.391 361.505 125.986C362.076 126.581 362.395 127.373 362.397 128.198L362.397 322.403Z" fill="#3F3D56"/>
<path d="M168.313 66.8388H98.13C96.7778 66.8364 95.4819 66.2969 94.5266 65.3388C93.5713 64.3806 93.0347 63.082 93.0347 61.7281C93.0347 60.3742 93.5713 59.0756 94.5266 58.1175C95.4819 57.1593 96.7778 56.6198 98.13 56.6174H168.313C169.665 56.6198 170.961 57.1593 171.916 58.1175C172.871 59.0756 173.408 60.3742 173.408 61.7281C173.408 63.082 172.871 64.3806 171.916 65.3388C170.961 66.2969 169.665 66.8364 168.313 66.8388Z" fill="white"/>
<path d="M131.945 45.1184H98.1299C96.7762 45.1184 95.478 44.58 94.5207 43.6215C93.5635 42.6631 93.0258 41.3632 93.0258 40.0078C93.0258 38.6523 93.5635 37.3524 94.5207 36.394C95.478 35.4355 96.7762 34.8971 98.1299 34.8971H131.945C133.299 34.8971 134.597 35.4355 135.554 36.394C136.512 37.3524 137.049 38.6523 137.049 40.0078C137.049 41.3632 136.512 42.6631 135.554 43.6215C134.597 44.58 133.299 45.1184 131.945 45.1184Z" fill="white"/>
<path d="M235.285 117.945H128.097C126.743 117.945 125.445 117.407 124.488 116.449C123.531 115.49 122.993 114.19 122.993 112.835C122.993 111.479 123.531 110.179 124.488 109.221C125.445 108.262 126.743 107.724 128.097 107.724H235.285C236.638 107.724 237.937 108.262 238.894 109.221C239.851 110.179 240.389 111.479 240.389 112.835C240.389 114.19 239.851 115.49 238.894 116.449C237.937 117.407 236.638 117.945 235.285 117.945Z" fill="white"/>
<path d="M235.285 141.582H128.097C127.426 141.583 126.761 141.452 126.141 141.196C125.521 140.94 124.957 140.563 124.482 140.089C124.007 139.614 123.63 139.05 123.373 138.429C123.116 137.809 122.984 137.143 122.984 136.472C122.984 135.8 123.116 135.134 123.373 134.514C123.63 133.893 124.007 133.329 124.482 132.854C124.957 132.38 125.521 132.004 126.141 131.747C126.761 131.491 127.426 131.36 128.097 131.361H235.285C235.956 131.36 236.621 131.491 237.241 131.747C237.862 132.004 238.425 132.38 238.9 132.854C239.375 133.329 239.752 133.893 240.009 134.514C240.266 135.134 240.399 135.8 240.399 136.472C240.399 137.143 240.266 137.809 240.009 138.429C239.752 139.05 239.375 139.614 238.9 140.089C238.425 140.563 237.862 140.94 237.241 141.196C236.621 141.452 235.956 141.583 235.285 141.582Z" fill="white"/>
<path d="M547.221 446.711H342.447C342.24 446.711 342.042 446.629 341.896 446.483C341.75 446.336 341.668 446.138 341.668 445.932C341.668 445.725 341.75 445.527 341.896 445.381C342.042 445.235 342.24 445.153 342.447 445.153H547.221C547.428 445.153 547.626 445.235 547.772 445.381C547.918 445.527 548 445.725 548 445.932C548 446.138 547.918 446.336 547.772 446.483C547.626 446.629 547.428 446.711 547.221 446.711Z" fill="#CBCBCB"/>
<path d="M189.839 446.711H114.313C114.107 446.711 113.909 446.629 113.763 446.483C113.617 446.336 113.535 446.138 113.535 445.932C113.535 445.725 113.617 445.527 113.763 445.381C113.909 445.235 114.107 445.153 114.313 445.153H189.839C190.045 445.153 190.243 445.235 190.389 445.381C190.535 445.527 190.617 445.725 190.617 445.932C190.617 446.138 190.535 446.336 190.389 446.483C190.243 446.629 190.045 446.711 189.839 446.711Z" fill="#CBCBCB"/>
<path d="M142.084 422.607C144.968 422.541 147.786 421.732 150.267 420.259C152.748 418.786 154.809 416.697 156.25 414.195C159.881 407.719 158.775 399.73 157.559 392.404L153.971 370.734L147.757 379.696C143.288 386.142 138.735 392.772 136.827 400.382C134.919 407.992 136.198 416.914 142.017 422.168" fill="#E6E6E6"/>
<path d="M152.002 446.737C148.815 440.86 145.574 434.913 143.808 428.423C142.24 422.66 141.886 416.585 143.658 410.825C144.6 407.772 146.066 404.906 147.992 402.358C148.494 401.693 149.494 402.509 148.994 403.171C145.666 407.589 143.825 412.951 143.737 418.484C143.654 424.631 145.516 430.594 148.025 436.143C149.541 439.498 151.292 442.738 153.047 445.974C153.143 446.115 153.182 446.286 153.156 446.454C153.13 446.622 153.04 446.773 152.906 446.877C152.767 446.977 152.595 447.019 152.426 446.992C152.257 446.966 152.106 446.874 152.004 446.736L152.002 446.737Z" fill="#F2F2F2"/>
</g>
<defs>
<clipPath id="clip0">
<rect width="548" height="447" fill="white"/>
</clipPath>
</defs>
</svg>
