<svg width="571" height="411" viewBox="0 0 571 411" fill="none" xmlns="http://www.w3.org/2000/svg">
<path d="M335.854 64.2112L316.693 75.8561V84.4534C314.815 84.2238 313.042 84.3616 311.396 84.7274L311.417 84.8422C311.417 84.8422 308.59 102.998 325.472 102.998C341.55 102.998 343.597 86.0116 343.744 84.3845C339.588 83.8794 336.55 84.2697 336.55 84.2697V64.2112H335.854Z" fill="url(#paint0_radial)"/>
<path d="M294.389 38.5327C292.302 50.5391 294.31 74.0239 304.746 82.1291C307.451 84.2325 321.643 82.4074 323.948 80.215C327.349 76.981 330.756 73.7555 334.163 70.533C334.916 69.8198 335.676 69.101 336.265 68.2273C337.091 67.0048 337.548 65.537 337.951 64.085C340.306 55.5852 342.04 46.2562 340.198 37.4365C339.209 32.7031 337.154 28.8305 334.44 25.8375C329.747 20.6666 323.688 18.2848 317.692 18.2863C307.048 18.2877 296.606 25.7917 294.389 38.5327Z" fill="url(#paint1_radial)"/>
<path d="M328.577 51.3272C328.717 49.4103 330.532 47.3112 332.353 48.5551C334.239 49.8421 333.795 53.2469 333.012 55.1222C332.402 56.5899 330.351 58.1998 328.963 56.8325C327.799 55.6875 329.606 54.3374 329.666 53.2913C329.72 52.3501 327.987 51.6758 328.697 50.6686" fill="#F7B094"/>
<path d="M328.912 60.1924C330.814 60.8136 334.036 59.2368 334.852 56.3586C335.666 53.4804 335.579 50.1947 335.579 50.1947C335.579 50.1947 336.536 52.8002 336.043 56.9928C335.551 61.1838 334.2 65.1769 331.171 65.2299C328.144 65.2816 328.912 60.1924 328.912 60.1924Z" fill="#F7B094"/>
<path d="M326.579 57.2093C326.517 57.2424 326.447 57.2667 326.366 57.2782C325.188 57.4575 324.718 55.9094 324.544 54.9409C324.134 52.6782 324.199 50.3883 324.128 48.0998C324.11 47.5259 324.151 46.8099 323.934 46.2704C323.273 44.6247 321.511 43.5557 320.972 41.8555C320.347 39.8784 322.114 37.9056 321.412 35.7419C320.339 32.426 316.419 31.6641 313.585 31.7C309.332 31.7545 305.185 32.6111 300.988 33.3185C296.557 34.066 290.892 34.7748 286.988 31.7302C282.283 28.0614 280.318 18.4999 283.829 13.2642C285.743 10.409 289.374 8.88959 292.555 8.81068C295.926 8.72603 298.775 10.9098 301.868 12.0088C304.331 12.8841 306.713 10.3244 309.016 9.82364C311.911 9.19663 313.139 12.6286 315.7 12.7234C318.186 12.8138 320.626 10.7032 323.044 10.2239C327.867 9.26695 327.582 14.5284 330.817 16.3248C332.827 17.441 335.425 16.7666 337.459 17.9016C339.004 18.7625 339.221 20.2775 339.558 21.995C339.849 23.4786 339.866 25.1918 340.314 26.6022C340.72 27.8705 341.699 28.6711 342.464 29.6626C343.299 30.7459 343.832 32.0099 344.255 33.3658C345.194 36.376 345.403 39.6229 345.146 42.7738C344.716 48.0625 343.15 53.2694 341.522 58.251C340.469 61.4836 340.077 64.8482 338.454 67.9072C338.018 68.7293 336.081 71.1312 335.361 69.342C335.207 68.9588 335.231 68.5227 335.257 68.1051C335.471 64.7722 338.327 43.3018 330.84 45.8801C329.269 46.4225 328.215 47.8429 327.629 49.4643C326.929 51.4026 326.88 53.3554 326.968 55.4044C326.982 55.697 326.988 55.9911 326.977 56.2839C326.964 56.6627 326.878 57.0471 326.579 57.2093Z" fill="#242424"/>
<path d="M316.692 82.4857C325.205 80.9993 330.823 73.6933 330.823 73.6933C330.823 73.6933 328.528 86.0067 316.181 86.6567L316.692 82.4857Z" fill="#F7B094"/>
<path d="M330.668 250.317H342.853V377.332C342.853 378.62 341.891 379.665 340.706 379.665H332.814C331.628 379.665 330.668 378.62 330.668 377.332V250.317Z" fill="#0A2033"/>
<path d="M303.252 252.132H370.268V254.12C370.268 259.122 366.534 263.179 361.929 263.179H311.59C306.986 263.179 303.252 259.122 303.252 254.12V252.132Z" fill="#30475E"/>
<path d="M330.668 364.606H342.853V394.039C342.853 395.328 341.891 396.372 340.706 396.372H332.814C331.628 396.372 330.668 395.328 330.668 394.039V364.606Z" fill="#0A2033"/>
<path d="M273.523 388.623C273.523 392.902 276.717 396.371 280.655 396.371C284.594 396.371 287.787 392.902 287.787 388.623C287.787 384.345 284.594 380.877 280.655 380.877C276.717 380.877 273.523 384.345 273.523 388.623Z" fill="#0A2033"/>
<path d="M385.733 388.623C385.733 392.902 388.925 396.371 392.863 396.371C396.803 396.371 399.997 392.902 399.997 388.623C399.997 384.345 396.803 380.877 392.863 380.877C388.925 380.877 385.733 384.345 385.733 388.623Z" fill="#0A2033"/>
<path d="M324.503 378.013H349.017V354.739H324.503V378.013Z" fill="#30475E"/>
<path d="M273.523 383.49H399.997V380.789C399.997 376.231 396.596 372.537 392.4 372.537H281.119C276.925 372.537 273.523 376.231 273.523 380.789V383.49Z" fill="#FAC42E"/>
<path d="M336.759 352.663H332.533V265.789H336.759V352.663Z" fill="#30475E"/>
<path d="M384.635 158.249C381.711 158.149 379.333 160.778 379.503 163.951C380.34 179.717 377.263 218.186 363.744 231.31C347.213 247.359 300.363 245.174 300.363 245.174C300.363 245.174 292.625 255.488 308.1 257.781C323.576 260.072 367.184 258.546 377.734 247.847C387.948 237.492 394.011 210.361 389.441 163.138C389.179 160.431 387.14 158.336 384.635 158.249Z" fill="#FAC42E"/>
<path d="M279.766 360.756L285.357 374.602L302.428 366.464L296.857 352.663L279.766 360.756Z" fill="url(#paint2_radial)"/>
<path d="M377.359 199.279C376.304 201.571 300.454 199.325 293.291 200.035C293.291 200.035 246.868 224.107 240.2 246.64C239.525 248.91 239.334 251.913 239.546 255.49C241.402 287.216 274.659 363.186 274.659 363.186L279.765 360.756L296.857 352.663L299.285 351.517C299.285 351.517 272.907 266.126 278.182 261.542C283.457 256.957 343.238 245.495 363.98 239.398C384.746 233.275 377.359 199.279 377.359 199.279Z" fill="#24943E"/>
<path d="M214.477 376.949H233.111L231.777 356.214L213.142 356.168L214.477 376.949Z" fill="url(#paint3_radial)"/>
<path d="M292.912 199.325L292.236 199.647C292.236 199.647 214.52 211.498 201.86 235.178C193.629 250.585 209.558 363.147 209.558 363.147L237.054 363.216C237.054 363.216 232.941 269.449 234.312 264.222C235.854 258.263 238.491 256.107 239.547 255.491C239.335 251.912 239.525 248.91 240.201 246.641C246.869 224.105 293.29 200.035 293.29 200.035C293.144 199.922 293.017 199.67 292.912 199.325Z" fill="#19672B"/>
<path d="M367.976 121.315L362.765 122.094C362.765 122.094 361.498 137.361 358.397 152.629L293.467 179.404L292.58 184.516C292.307 184.494 292.032 184.472 291.78 184.447C291.8 185.502 291.8 186.533 291.842 187.497C291.99 193.388 292.348 197.629 292.919 199.325C293.024 199.67 293.151 199.922 293.299 200.035C295.062 201.598 318.027 198.57 342.853 208.473C364.384 217.062 376.453 226.444 377.011 225.184C383.777 209.901 371.458 149.923 367.976 121.315Z" fill="#4F8EF2"/>
<path d="M361.203 156.296C359.472 165.328 354.999 183.3 346.221 185.708C334.762 188.872 312.606 188.712 291.842 187.497C291.8 186.533 291.8 185.501 291.78 184.447C292.032 184.472 292.307 184.494 292.58 184.516L293.467 179.404L358.397 152.629C361.498 137.361 362.765 122.094 362.765 122.094C362.765 122.094 362.765 122.185 362.785 122.347C362.911 124.708 363.799 142.956 361.203 156.296Z" fill="#4F8EF2"/>
<path d="M296.12 98.7806C294.958 101.074 293.29 125.601 292.384 149.947L279.111 136.49C284.745 124.639 296.12 98.7806 296.12 98.7806Z" fill="#4F8EF2"/>
<path d="M288.165 167.735C276.959 169.845 266.661 171.655 266.661 171.655L266.64 172.251C254.17 161.431 235.198 130.782 235.198 130.782C235.198 130.782 240.875 123.377 242.29 121.428C242.5 121.132 273.435 144.262 275.017 144.055C275.419 144.01 277.001 140.984 279.112 136.49L292.384 149.946C292.173 155.747 292.003 161.523 291.898 167.002C290.653 167.255 289.408 167.485 288.165 167.735Z" fill="#F7B094"/>
<path d="M232.625 181.696H266.386L266.661 171.657L257.777 172.619C257.777 172.619 254.253 167.369 245.117 167.369C235.979 167.369 232.625 181.696 232.625 181.696Z" fill="url(#paint4_radial)"/>
<path d="M242.035 121.201L242.289 121.431C240.875 123.38 235.198 130.784 235.198 130.784L231.674 128.078C231.674 128.078 227.792 130.646 223.278 127.964C218.57 125.189 221.483 118.567 221.724 117.782C220.812 118.062 215.173 123.012 214.287 122.485C213.4 121.958 212.747 120.215 219.057 113.453C225.344 106.691 233.912 115.378 234.165 115.378L242.035 121.201Z" fill="#F7B094"/>
<path d="M224.011 126.812C224.011 126.812 222.65 129.58 225.069 130.783C227.487 131.985 232.191 132.852 234.214 132.642C236.235 132.431 237.841 129.358 237.841 129.358L231.72 123.118H226.826L224.011 126.812Z" fill="#F7B094"/>
<path d="M223.648 128.171C224.01 126.812 227.487 127.537 229.64 127.592C231.228 127.633 232.097 127.182 232.59 125.87C233.08 124.554 230.775 122.461 230.322 123.119C229.867 123.775 231.153 124.7 231.191 125.572C231.228 126.443 228.923 126.731 227.147 126.731C225.372 126.731 222.307 127.234 222.307 127.234L223.648 128.171Z" fill="#E8987C"/>
<path d="M314.499 162.212C310.636 163.313 301.309 165.214 291.897 167.003C290.653 167.254 289.408 167.484 288.164 167.737C276.959 169.846 266.661 171.657 266.661 171.657L266.64 172.251V172.64L266.387 181.696V183.995C266.387 183.995 277.612 183.37 291.772 184.447C311.587 185.983 337.14 186.901 345.601 182.568C349.568 180.527 352.734 173.834 355.224 165.581C355.182 165.604 355.139 165.627 355.098 165.65L322.032 152.927C319.625 157.811 317.051 161.479 314.499 162.212Z" fill="url(#paint5_radial)"/>
<path d="M322.031 152.926L355.098 165.651L353.601 170.45L320.874 155.198L322.031 152.926Z" fill="#F7B094"/>
<path d="M322.031 152.926C319.626 157.81 317.051 161.478 314.499 162.211C310.637 163.312 301.31 165.214 291.898 167.002C292.005 161.524 292.174 155.746 292.384 149.946C293.29 125.602 294.959 101.073 296.12 98.7804C298.018 94.9523 303.21 86.6305 311.396 84.728L311.417 84.8427C311.417 84.8427 308.59 102.999 325.47 102.999C341.55 102.999 343.597 86.0121 343.744 84.385C352.017 85.3937 364.7 89.8861 366.451 107.95C366.809 111.527 367.315 116.111 367.97 121.316L362.757 122.095C362.757 122.095 360.646 147.54 355.225 165.582C355.183 165.603 355.139 165.627 355.098 165.651L322.031 152.926Z" fill="#4F8EF2"/>
<path d="M321.689 149.616L334.893 114.893L325.167 151.019L321.689 149.616Z" fill="black" fill-opacity="0.18"/>
<path d="M343.744 84.3844H336.55C336.55 84.3844 326.31 96.5988 319.727 96.5988C313.145 96.5988 316.694 84.4532 316.694 84.4532H313.481C304.257 84.4532 296.494 91.9788 295.449 101.936C295.33 103.077 295.22 104.159 295.127 105.137C294.424 112.527 321.978 117.904 321.978 117.904L336.164 117.042L344.78 98.7811L346.496 91.303L343.744 84.3844Z" fill="#4F8EF2"/>
<path d="M256.917 390.487C257.557 394.222 259.941 396.876 263.379 396.18L309.21 386.892C310.369 386.658 311.133 385.446 310.917 384.187L310.159 379.768C310.159 379.768 261.956 388.933 256.892 390.458L256.917 390.487Z" fill="#F1F2F2"/>
<path d="M270.552 377.95C271.029 377.5 271.489 377.052 271.968 376.603C272.887 375.709 273.792 374.839 274.662 373.995C275.122 373.548 275.583 373.101 276.008 372.682C276.845 371.868 277.632 371.105 278.339 370.419C278.847 369.921 279.323 369.45 279.75 369.03C280.533 368.268 281.172 367.646 281.621 367.21C282.01 366.832 282.585 366.813 282.985 367.178C284.869 368.898 290.958 372.833 301.988 365.42C302.509 365.067 303.204 365.251 303.488 365.843L310.158 379.769C310.158 379.769 261.957 388.932 256.894 390.459C258.559 389.331 264.711 383.546 270.552 377.95Z" fill="#24933E"/>
<path d="M184.737 389.998C184.824 393.795 186.786 396.83 190.281 396.735L236.889 395.5C238.068 395.468 239.001 394.405 238.971 393.126L238.869 388.634C238.869 388.634 189.94 389.336 184.718 389.967L184.737 389.998Z" fill="#F1F2F2"/>
<path d="M200.037 379.982C200.576 379.619 201.095 379.258 201.634 378.896C202.672 378.171 203.692 377.469 204.675 376.789C205.194 376.426 205.714 376.066 206.196 375.725C207.142 375.065 208.032 374.45 208.83 373.896C209.405 373.491 209.942 373.108 210.425 372.769C211.309 372.151 212.032 371.646 212.54 371.293C212.979 370.987 213.551 371.07 213.891 371.5C215.498 373.524 220.933 378.461 232.909 373.052C233.476 372.795 234.133 373.096 234.328 373.732L238.869 388.633C238.869 388.633 189.94 389.337 184.718 389.967C186.527 389.141 193.451 384.496 200.037 379.982Z" fill="#24933E"/>
<path d="M151.584 183.995L126.692 111.876H197.556L222.444 183.995H151.584Z" fill="#ABB5BA"/>
<path d="M226.826 183.995H222.445L197.555 111.876L201.533 112.068L224.555 177.346L226.826 183.995Z" fill="#8495A0"/>
<path d="M225.452 183.995H272.275L272.147 179.448H224.493" fill="#8495A0"/>
<path d="M424.938 398.955H413.664V197.75H424.938V398.955Z" fill="#84A08B"/>
<path d="M363.744 398.955H352.47V197.75H363.744V398.955Z" fill="#ABBAAF"/>
<path d="M167.697 398.955H156.423V197.75H167.697V398.955Z" fill="#84A08B"/>
<path d="M106.503 398.955H95.2295V197.75H106.503V398.955Z" fill="#ABBAAF"/>
<path d="M436.22 198.512H84.4295C81.4038 198.512 78.9498 195.848 78.9498 192.561V189.946C78.9498 186.659 81.4038 183.995 84.4295 183.995H436.22C439.245 183.995 441.698 186.659 441.698 189.946V192.561C441.698 195.848 439.245 198.512 436.22 198.512Z" fill="#145623"/>
<path d="M138.524 119.456L139.737 122.969H153.852L152.64 119.456H138.524Z" fill="#8495A0"/>
<path d="M279.112 136.491L278.097 138.616L292.384 154.656V149.948L279.112 136.491Z" fill="#E8987C"/>
<path d="M570.691 410.519H0.248177V396.37H570.691V410.519Z" fill="#A5B7C6"/>
<defs>
<radialGradient id="paint0_radial" cx="0" cy="0" r="1" gradientUnits="userSpaceOnUse" gradientTransform="translate(327.492 83.6048) scale(17.071 18.5455)">
<stop stop-color="#FFC8AF"/>
<stop offset="1" stop-color="#FFBB9C"/>
</radialGradient>
<radialGradient id="paint1_radial" cx="0" cy="0" r="1" gradientUnits="userSpaceOnUse" gradientTransform="translate(317.615 50.0363) rotate(-13.1673) scale(27.0206 29.1218)">
<stop stop-color="#FFC8AF"/>
<stop offset="1" stop-color="#FFBB9C"/>
</radialGradient>
<radialGradient id="paint2_radial" cx="0" cy="0" r="1" gradientUnits="userSpaceOnUse" gradientTransform="translate(291.097 363.633) scale(10.7321 11.659)">
<stop stop-color="#FFC8AF"/>
<stop offset="1" stop-color="#FFBB9C"/>
</radialGradient>
<radialGradient id="paint3_radial" cx="0" cy="0" r="1" gradientUnits="userSpaceOnUse" gradientTransform="translate(223.127 366.558) scale(9.77541 10.6197)">
<stop stop-color="#FFC8AF"/>
<stop offset="1" stop-color="#FFBB9C"/>
</radialGradient>
<radialGradient id="paint4_radial" cx="0" cy="0" r="1" gradientUnits="userSpaceOnUse" gradientTransform="translate(282.642 167.28) rotate(9.89386) scale(54.86 59.3297)">
<stop stop-color="#FFC8AF"/>
<stop offset="1" stop-color="#FFBB9C"/>
</radialGradient>
<radialGradient id="paint5_radial" cx="0" cy="0" r="1" gradientUnits="userSpaceOnUse" gradientTransform="translate(282.642 167.28) rotate(9.89385) scale(54.86 59.3296)">
<stop stop-color="#FFC8AF"/>
<stop offset="1" stop-color="#FFBB9C"/>
</radialGradient>
</defs>
</svg>
