<svg width="1440" height="188" viewBox="0 0 1440 188" fill="none" xmlns="http://www.w3.org/2000/svg">
<g clip-path="url(#clip0)">
<path d="M0 147.22L40 137.375C80 127.897 160 171.419 240 152.097C320 132.774 400 112.531 480 137.375C560 162.218 640 186.417 720 166.819C800 147.22 787 137.375 876 115.016C938.705 99.2626 974 123.757 1057.5 147.22C1127.25 166.819 1305.5 242.913 1440 115.016V29.444V0H1400C1360 0 1280 0 1200 0C1120 0 1040 0 960 0C880 0 800 0 720 0C640 0 560 0 480 0C400 0 320 0 240 0C160 0 80 0 40 0H0V147.22Z" fill="white"/>
</g>
<defs>
<clipPath id="clip0">
<rect width="1440" height="187.28" fill="white"/>
</clipPath>
</defs>
</svg>
